<svg xmlns="http://www.w3.org/2000/svg" viewBox="0 0 300 218" height="218" width="300"><style>.s0{fill-opacity:0.50199998;fill:#000;stroke-opacity:0.50199998;stroke:#fff;}.s1{fill:#fff;}.s2{fill:#f9fefd;}.s3{fill:none;stroke-linejoin:round;stroke-width:30;stroke:#6e6f69;}.s4{fill:#c0c0c0;}.s5{fill:#b3b3b3;}</style><g clip-path="url(#presentation_clip_path)" class="SlideGroup Slide" transform="matrix(.01123 0 0 .01123 -1.444 -294.812)"><g class="Page Group"><g class="Group"><path d="M3739 31053c0 564-24 620 201 685 0 0 792 7 962 0 169-7 135-225 128-685l16494-80s-17 544 0 644c17 101 163 163 163 163h848s194 10 200-121c7-132 0-644 0-644s932-42 1122 0c190 41 235 131 291 159 55 28 41 14009 41 14036 0 28-14 191-419 322-405 132-18228 56-21052-7 0 0-346-76-388-339s-142-13707-42-13891c101-183 70-280 243-280s1215-42 1208 38zM3766 30822c-1049 86-1014 211-1430-24-619-1008-1931-3123-2056-3334-124-211-55-516 208-595 263-80 25179-52 25345-28s447 24 467 184c21 159 38 325-52 467s-2160 3330-2160 3330l-13582-24-6740 24z" class="com.sun.star.drawing.ClosedBezierShape s0"/></g><path d="M4187 30570c0 564-24 619 201 685 0 0 793 7 962 0 170-7 135-225 128-685l16494-80s-17 544 0 644c18 100 163 163 163 163h848s194 10 201-121c7-132 0-644 0-644s931-42 1121 0c191 41 236 131 291 159 56 28 42 14009 42 14036 0 28-14 191-419 322-405 132-18228 56-21053-7 0 0-346-76-388-339-41-263-141-13707-41-13891 100-183 69-280 242-280s1215-42 1208 38zM4215 30339c-1049 86-1015 211-1430-24-620-1008-1932-3123-2056-3334-125-211-56-516 207-595 264-80 25179-52 25345-28 167 24 447 24 468 184 21 159 38 325-52 467s-2160 3330-2160 3330l-13583-24-6739 24z" fill="#fff" class="com.sun.star.drawing.ClosedBezierShape"/><g class="com.sun.star.drawing.ClosedBezierShape"><path d="M4220 30210c45 761 0 775 177 865 176 90 734 76 865-14 132-90 132-135 118-103-14 31 14-897 14-897l-1160 45-14 104z" fill="#f9fefd"/><path d="M4220 30210c45 761 0 775 177 865 176 90 734 76 865-14 132-90 132-135 118-103-14 31 14-897 14-897l-1160 45-14 104z" class="s3"/></g><g class="com.sun.star.drawing.ClosedBezierShape"><path d="M21922 30213c45 762 0 776 177 866 176 90 734 76 865-14 132-90 132-135 118-104s14-897 14-897l-1160 45-14 104z" fill="#f9fefd"/><path d="M21922 30213c45 762 0 776 177 866 176 90 734 76 865-14 132-90 132-135 118-104s14-897 14-897l-1160 45-14 104z" class="s3"/></g><g class="Group"><path d="M10742 39933h6826c52 1153-14 3434-4 3434h-6822v-3434zM10745 43578h2821c21 118-59 353-3 350 59-4-2818 0-2818 0v-350zM14677 43582h2821c21 117-58 353-3 349 59-3-2818 0-2818 0v-349z" fill="silver" class="com.sun.star.drawing.ClosedBezierShape"/></g><g class="Group"><path d="M6591 35711c80-152 84-114 222-159 135-49 478-56 602 0 128 52 104 14 163 159 62 145 35 685 0 734-35 52-38 83-180 138-145 52-713 25-706-38 10-62-35 52-101-79-62-132-76-603 0-755zM7834 35711c80-152 83-114 222-159 135-49 477-56 602 0 128 52 104 14 163 159 62 145 34 685 0 734-35 52-38 83-180 138-146 52-713 25-707-38 11-62-34 52-100-79-62-132-76-603 0-755zM9056 35711c80-152 83-114 222-159 135-49 477-56 602 0 128 52 104 14 163 159 62 145 34 685 0 734-35 52-39 83-180 138-146 52-714 25-707-38 11-62-34 52-100-79-62-132-76-603 0-755zM10274 35773c80-152 84-114 222-159 135-48 478-55 602 0 128 52 104 14 163 159 62 146 35 686 0 734-35 52-38 83-180 139-145 52-713 24-706-38 10-63-35 52-101-80-62-132-76-602 0-755zM11476 35732c79-152 83-114 221-159 135-49 478-56 602 0 129 52 104 13 163 159 62 145 35 685 0 734-34 52-38 83-180 138-145 52-713 24-706-38 10-62-35 52-100-80-63-131-77-602 0-754zM12697 35711c80-152 84-114 222-159 135-49 478-56 602 0 128 52 104 14 163 159 62 145 35 685 0 734-35 52-38 83-180 138-145 52-713 25-706-38 10-62-35 52-101-79-62-132-76-603 0-755zM13978 35732c80-152 83-114 222-159 135-49 477-56 602 0 128 52 104 13 163 159 62 145 34 685 0 734-35 52-38 83-180 138-146 52-713 24-706-38 10-62-35 52-101-80-62-131-76-602 0-754zM15221 35732c80-152 83-114 221-159 135-49 478-56 603 0 128 52 104 13 162 159 63 145 35 685 0 734-34 52-38 83-180 138-145 52-713 24-706-38 11-62-34 52-100-80-62-131-76-602 0-754zM16460 35732c80-152 83-114 222-159 135-49 477-56 602 0 128 52 104 13 163 159 62 145 34 685 0 734-35 52-38 83-180 138-146 52-713 24-706-38 10-62-35 52-101-80-62-131-76-602 0-754zM17703 35773c79-152 83-114 221-159 135-48 478-55 603 0 128 52 103 14 162 159 63 146 35 686 0 734-34 52-38 83-180 139-145 52-713 24-706-38 11-63-34 52-100-80-63-132-76-602 0-755zM18921 35732c80-152 83-114 222-159 135-49 477-56 602 0 128 52 104 13 163 159 62 145 34 685 0 734-35 52-38 83-180 138-146 52-713 24-706-38 10-62-35 52-101-80-62-131-76-602 0-754zM20194 35753c153-153 160-115 436-160 277-48 956-55 1212 0 256 52 201 14 322 160 121 145 69 685 0 733-66 52-73 84-364 139-287 52-1426 24-1405-38s-73 52-201-80c-128-131-155-602 0-754zM4473 35810c118-135 125-97 336-139 211-41 734-48 931 0 197 45 156 11 249 139 94 131 52 609 0 654-52 41-55 73-280 121-222 45-1097 21-1080-35 14-55-59 49-156-69-100-117-121-533 0-671zM22469 35728c80-152 83-114 222-159 135-48 477-55 602 0 128 52 104 14 163 159 62 146 34 686 0 734-35 52-38 83-180 139-146 52-713 24-706-38 10-63-35 52-101-80-62-132-76-602 0-755zM6263 34551c79-152 83-114 221-159 135-48 478-55 602 0 129 52 104 14 163 159 62 146 35 686 0 734-34 52-38 83-180 139-145 52-713 24-706-38 10-63-35 52-100-80-63-131-77-602 0-755zM7505 34551c80-152 83-114 222-159 135-48 477-55 602 0 128 52 104 14 163 159 62 146 34 686 0 734-35 52-38 83-180 139-146 52-713 24-706-38 10-63-35 52-101-80-62-131-76-602 0-755zM8727 34551c80-152 83-114 222-159 135-48 477-55 602 0 128 52 104 14 163 159 62 146 34 686 0 734-35 52-38 83-180 139-146 52-713 24-706-38 10-63-35 52-101-80-62-131-76-602 0-755zM9946 34614c79-153 83-114 221-159 135-49 478-56 602 0 129 51 104 13 163 159 62 145 35 685 0 734-34 52-38 83-180 138-145 52-713 24-706-38 10-62-35 52-100-80-63-131-77-602 0-754zM11147 34572c79-152 83-114 221-159 135-48 478-55 603 0 128 52 103 14 162 159 63 146 35 686 0 734-34 52-38 83-180 139-145 51-713 24-706-39 11-62-34 52-100-79-63-132-76-602 0-755zM12369 34551c79-152 83-114 221-159 135-48 478-55 602 0 129 52 104 14 163 159 62 146 35 686 0 734-34 52-38 83-180 139-145 52-713 24-706-38 10-63-35 52-100-80-63-131-76-602 0-755zM13649 34572c80-152 83-114 222-159 135-48 478-55 602 0 128 52 104 14 163 159 62 146 35 686 0 734-35 52-38 83-180 139-145 51-713 24-706-39 10-62-35 52-101-79-62-132-76-602 0-755zM14892 34572c80-152 83-114 222-159 135-48 477-55 602 0 128 52 104 14 163 159 62 146 34 686 0 734-35 52-38 83-180 139-146 51-713 24-707-39 11-62-34 52-100-79-62-132-76-602 0-755zM16131 34572c80-152 83-114 222-159 135-48 478-55 602 0 128 52 104 14 163 159 62 146 34 686 0 734-35 52-38 83-180 139-146 51-713 24-706-39 10-62-35 52-101-79-62-132-76-602 0-755zM17374 34614c80-153 83-114 221-159 135-49 478-56 603 0 128 51 104 13 162 159 63 145 35 685 0 734-34 52-38 83-180 138-145 52-713 24-706-38 11-62-34 52-100-80-62-131-76-602 0-754zM18592 34572c80-152 83-114 222-159 135-48 478-55 602 0 128 52 104 14 163 159 62 146 35 686 0 734-35 52-38 83-180 139-145 51-713 24-706-39 10-62-35 52-101-79-62-132-76-602 0-755zM4414 33326c76-152 80-114 218-159 139-49 474-56 603 0 124 52 100 14 159 159s34 685 0 734c-35 52-38 83-180 138-146 52-710 25-699-38 10-62-35 52-101-79-62-132-76-603 0-755zM5650 33326c76-152 80-114 218-159 138-49 474-56 602 0 125 52 101 14 160 159 58 145 34 685 0 734-35 52-39 83-180 138-146 52-710 25-700-38 11-62-34 52-100-79-62-132-76-603 0-755zM6861 33326c77-152 80-114 219-159 138-49 474-56 602 0 124 52 100 14 159 159s35 685 0 734c-35 52-38 83-180 138-145 52-710 25-699-38 10-62-35 52-101-79-62-132-76-603 0-755zM8073 33388c76-152 80-114 218-159 138-48 474-55 602 0 125 52 101 14 160 159 58 146 34 686 0 734-35 52-39 83-180 139-146 52-710 24-700-38 11-63-34 52-100-80-62-132-76-602 0-755zM9264 33347c76-152 79-114 218-159 138-49 474-56 602 0 125 52 100 13 159 159 59 145 35 685 0 734-34 52-38 83-180 138-145 52-709 24-699-38s-35 52-100-80c-63-131-76-602 0-754zM10475 33326c76-152 80-114 218-159 139-49 475-56 603 0 124 52 100 14 159 159s34 685 0 734c-35 52-38 83-180 138-146 52-710 25-699-38 10-62-35 52-101-79-62-132-76-603 0-755zM11749 33347c76-152 80-114 218-159 139-49 474-56 602 0 125 52 101 13 160 159 58 145 34 685 0 734-35 52-38 83-180 138-146 52-710 24-700-38 11-62-34 52-100-80-62-131-76-602 0-754zM12981 33347c76-152 80-114 218-159 139-49 475-56 603 0 124 52 100 13 159 159 59 145 35 685 0 734-35 52-38 83-180 138-145 52-710 24-699-38 10-62-35 52-101-80-62-131-76-602 0-754zM14214 33347c76-152 79-114 218-159 138-49 474-56 602 0 125 52 100 13 159 159 59 145 35 685 0 734-34 52-38 83-180 138-145 52-709 24-699-38s-35 52-100-80c-63-131-77-602 0-754zM15446 33388c76-152 80-114 218-159 138-48 474-55 602 0 125 52 101 14 160 159 58 146 34 686 0 734-35 52-39 83-180 139-146 52-710 24-700-38 11-63-34 52-100-80-62-132-76-602 0-755zM16654 33347c76-152 80-114 218-159 139-49 474-56 602 0 125 52 101 13 160 159 58 145 34 685 0 734-35 52-39 83-180 138-146 52-710 24-700-38 11-62-34 52-100-80-62-131-76-602 0-754zM7201 36850c79-152 83-114 221-159 135-49 478-56 602 0 129 52 104 14 163 159 62 145 35 685 0 734-34 52-38 83-180 138-145 52-713 24-706-38 10-62-35 52-100-80-63-131-76-602 0-754zM8443 36850c80-152 83-114 222-159 135-49 478-56 602 0 128 52 104 14 163 159 62 145 34 685 0 734-35 52-38 83-180 138-146 52-713 24-706-38 10-62-35 52-101-80-62-131-76-602 0-754zM9665 36850c80-152 83-114 222-159 135-49 477-56 602 0 128 52 104 14 163 159 62 145 34 685 0 734-35 52-38 83-180 138-146 52-713 24-706-38 10-62-35 52-101-80-62-131-76-602 0-754zM10884 36912c79-152 83-114 221-159 135-48 478-55 603 0 128 52 103 14 162 159 63 146 35 686 0 734-34 52-38 83-180 138-145 52-713 25-706-38 10-62-35 52-100-79-63-132-76-602 0-755zM12085 36871c79-153 83-115 221-160 135-48 478-55 603 0 128 52 103 14 162 160 63 145 35 685 0 733-34 52-38 84-180 139-145 52-713 24-706-38 11-62-34 52-100-80-62-131-76-602 0-754zM13307 36850c79-152 83-114 221-159 135-49 478-56 603 0 128 52 103 14 162 159 63 145 35 685 0 734-34 52-38 83-180 138-145 52-713 24-706-38 10-62-35 52-100-80-63-131-76-602 0-754zM14587 36871c80-153 84-115 222-160 135-48 478-55 602 0 128 52 104 14 163 160 62 145 35 685 0 733-35 52-38 84-180 139-145 52-713 24-706-38 10-62-35 52-101-80-62-131-76-602 0-754zM15830 36871c80-153 83-115 222-160 135-48 477-55 602 0 128 52 104 14 163 160 62 145 34 685 0 733-35 52-38 84-180 139-146 52-713 24-706-38 10-62-35 52-101-80-62-131-76-602 0-754zM17069 36871c80-153 83-115 222-160 135-48 478-55 602 0 128 52 104 14 163 160 62 145 34 685 0 733-35 52-38 84-180 139-146 52-713 24-706-38 10-62-35 52-101-80-62-131-76-602 0-754zM18312 36912c80-152 83-114 222-159 135-48 477-55 602 0 128 52 104 14 163 159 62 146 34 686 0 734-35 52-39 83-180 138-146 52-714 25-707-38 11-62-34 52-100-79-62-132-76-602 0-755zM19555 36871c114-153 118-115 319-160 200-48 695-55 879 0 187 52 149 14 235 160 90 145 49 685 0 733-48 52-52 84-263 139-211 52-1038 24-1021-38 14-62-55 52-149-80-93-131-111-602 0-754zM4605 38134c79-152 83-114 221-159 135-49 478-56 602 0 128 52 104 14 163 159 62 145 35 685 0 734-35 52-38 83-180 138-145 52-713 25-706-38 10-62-35 52-100-79-63-132-77-603 0-755zM6010 38134c80-152 83-114 221-159 135-49 478-56 603 0 128 52 104 14 162 159 63 145 35 685 0 734-34 52-38 83-180 138-145 52-713 25-706-38 11-62-34 52-100-79-62-132-76-603 0-755zM7232 38134c79-152 83-114 221-159 135-49 478-56 603 0 128 52 103 14 162 159 63 145 35 685 0 734-34 52-38 83-180 138-145 52-713 25-706-38 11-62-34 52-100-79-62-132-76-603 0-755zM8450 38196c80-152 83-114 222-159 135-48 477-55 602 0 128 52 104 14 163 159 62 146 34 686 0 734-35 52-38 83-180 139-146 52-713 24-706-38 10-63-35 52-101-80-62-132-76-602 0-755zM9651 38155c80-152 83-114 222-159 135-49 478-56 602 0 128 52 104 13 163 159 62 145 35 685 0 734-35 52-38 83-180 138-145 52-713 24-706-38 10-62-35 52-101-80-62-131-76-602 0-754zM10873 38134c80-152 83-114 222-159 135-49 478-56 602 0 128 52 104 14 163 159 62 145 34 685 0 734-35 52-38 83-180 138-146 52-713 25-706-38 10-62-35 52-101-79-62-132-76-603 0-755zM12154 38155c80-152 83-114 222-159 135-49 477-56 602 0 128 52 104 13 163 159 62 145 34 685 0 734-35 52-39 83-180 138-146 52-713 24-707-38 11-62-34 52-100-80-62-131-76-602 0-754zM13397 38155c79-152 83-114 221-159 135-49 478-56 603 0 128 52 103 13 162 159 63 145 35 685 0 734-34 52-38 83-180 138-145 52-713 24-706-38 10-62-35 52-100-80-63-131-76-602 0-754zM14636 38155c80-152 83-114 221-159 135-49 478-56 603 0 128 52 104 13 162 159 63 145 35 685 0 734-34 52-38 83-180 138-145 52-713 24-706-38 11-62-34 52-100-80-62-131-76-602 0-754zM15879 38196c79-152 83-114 221-159 135-48 478-55 602 0 129 52 104 14 163 159 62 146 35 686 0 734-34 52-38 83-180 139-145 52-713 24-706-38 10-63-35 52-100-80-63-132-77-602 0-755zM17073 38113c79-152 83-114 221-159 135-48 478-55 603 0 128 52 103 14 162 159 63 146 35 686 0 734-34 52-38 83-180 139-145 52-713 24-706-38 11-63-34 51-100-80-62-132-76-602 0-755zM20112 38151c80-152 83-114 222-159 135-48 477-55 602 0 128 52 104 14 163 159 62 146 34 686 0 734-35 52-39 83-180 139-146 52-714 24-707-38 11-63-34 52-100-80-62-132-76-602 0-755zM21289 38251c80-135 83-100 221-142 135-38 478-45 603 0 128 48 104 14 162 142 63 125 35 595 0 637-34 45-38 73-180 121-145 45-713 21-706-35 11-52-34 49-100-69-62-114-76-523 0-654zM22480 38191c79-138 83-100 221-142 135-41 478-48 602 0 129 45 104 11 163 142 62 132 35 609 0 654-34 45-38 77-180 125-145 45-713 21-706-35 10-55-35 49-100-72-63-118-77-537 0-672zM21289 37037c80-152 83-114 221-159 135-49 478-56 603 0 128 52 104 13 162 159 63 145 35 685 0 734-34 52-38 83-180 138-145 52-713 24-706-38 11-62-34 52-100-80-62-131-76-602 0-754zM22480 36999c79-153 83-114 221-159 135-49 478-56 602 0 129 51 104 13 163 159 62 145 35 685 0 734-34 51-38 83-180 138-145 52-713 24-706-38 10-62-35 52-100-80-63-131-77-602 0-754zM22504 33347c79-152 83-114 221-159 135-49 478-56 603 0 128 52 104 13 162 159 63 145 35 685 0 734-34 52-38 83-180 138-145 52-713 24-706-38 11-62-34 52-100-80-62-131-76-602 0-754zM22476 32201c80-152 83-114 222-159 135-49 477-55 602 0 128 52 104 14 163 159 62 146 34 685 0 734-35 52-38 83-180 138-146 52-713 25-706-38 10-62-35 52-101-79-62-132-76-603 0-755zM22480 34555c79-152 83-114 221-159 135-49 478-56 602 0 129 52 104 14 163 159 62 145 35 685 0 734-34 52-38 83-180 138-145 52-713 24-706-38 10-62-35 52-100-79-63-132-77-603 0-755zM21258 32236c79-153 83-114 221-159 135-49 478-56 603 0 128 51 103 13 162 159 63 145 35 685 0 734-34 51-38 83-180 138-145 52-713 24-706-38 11-62-34 52-100-80-63-131-76-602 0-754zM20140 32198c79-153 83-115 221-160 135-48 478-55 603 0 128 52 103 14 162 160 63 145 35 685 0 733-34 52-38 84-180 139-145 52-713 24-706-38 10-62-35 52-100-80-63-131-76-602 0-754zM19008 32191c79-153 83-114 221-159 135-49 478-56 603 0 128 51 103 13 162 159 63 145 35 685 0 734-34 51-38 83-180 138-145 52-713 24-706-38 11-62-34 52-100-80-63-131-76-602 0-754zM17958 32176c73-149 73-108 201-153 125-48 436-52 554 0 118 49 94 11 149 153 55 141 31 668 0 716-31 49-35 80-166 132-132 52-654 24-644-35 7-62-35 52-94-80-58-128-69-585 0-733zM16820 32200c72-149 72-108 200-153 125-48 437-51 554 0 118 49 94 11 149 153s31 668 0 716c-31 49-35 80-166 132-132 52-654 24-644-35 7-62-35 52-93-79-59-128-70-585 0-734zM15740 32179c72-149 72-107 200-152 125-49 437-52 554 0 118 48 94 10 149 152s31 668 0 717c-31 48-35 79-166 131-132 52-654 24-644-35 7-62-34 52-93-79-59-128-70-585 0-734zM14594 32193c73-149 73-107 201-152 124-49 436-52 554 0 117 48 93 10 148 152 56 142 32 668 0 716-31 49-34 80-166 132-131 52-654 24-644-35 7-62-34 52-93-79-59-128-69-585 0-734zM13493 32217c73-149 73-107 201-152 125-49 436-52 554 0 117 48 93 10 149 152 55 142 31 668 0 717-32 48-35 79-167 131-131 52-654 24-643-34 7-63-35 51-94-80-59-128-69-585 0-734zM12372 32231c72-149 72-107 200-152 125-49 437-52 554 0 118 48 94 10 149 152s31 668 0 716c-31 49-35 80-166 132-132 52-654 24-644-35 7-62-35 52-93-79-59-128-70-585 0-734zM11247 32203c72-149 72-107 200-152 125-49 437-52 554 0 118 48 94 10 149 152s31 668 0 717c-31 48-35 79-166 131-132 52-654 25-644-34 7-63-35 52-93-80-59-128-70-585 0-734zM10122 32200c72-149 72-108 200-153 125-48 437-51 554 0 118 49 94 11 149 153 56 142 31 668 0 716-31 49-34 80-166 132s-654 24-644-35c7-62-34 52-93-79-59-128-70-585 0-734zM9004 32210c72-149 72-107 200-152 125-49 437-52 554 0 118 48 94 10 149 152s31 668 0 717c-31 48-35 79-166 131-132 52-654 24-644-34 7-63-35 52-93-80-59-128-70-585 0-734zM7892 32217c73-149 73-107 201-152 125-49 436-52 554 0 118 48 94 10 149 152s31 668 0 717c-31 48-35 79-166 131-132 52-654 24-644-34 7-63-35 51-94-80-58-128-69-585 0-734zM6761 32203c72-149 72-107 200-152 125-49 436-52 554 0 118 48 94 10 149 152s31 668 0 717c-31 48-35 79-166 131-132 52-654 25-644-34 7-63-35 52-93-80-59-128-70-585 0-734zM5632 32172c73-149 73-107 201-152 125-49 436-52 554 0 117 48 93 10 149 152 55 142 31 668 0 717-32 48-35 79-167 131-131 52-654 24-643-34 7-63-35 51-94-80-59-128-69-585 0-734zM4462 32186c73-149 73-107 201-152 125-49 436-52 554 0 117 48 93 10 149 152 55 142 31 668 0 716-32 49-35 80-167 132-131 52-654 24-643-35 7-62-35 52-94-79-59-128-69-585 0-734zM4530 36758c329-17 1488-14 1952 31s554 1032-45 1028c-599-3-959 11-1665-34s-571-1007-242-1025z" fill="#b3b3b3" class="com.sun.star.drawing.ClosedBezierShape"/><path d="M20400 33186c274-17 1232-14 1617 31 384 45 460 1032-38 1028-495-3-793 11-1378-34s-474-1008-201-1025zM19773 34545c79-153 83-115 221-160 135-48 478-55 603 0 128 52 103 14 162 160 63 145 35 685 0 733-34 52-38 83-180 139-145 52-713 24-706-38 11-63-34 52-100-80-63-131-76-602 0-754zM21123 34555c79-152 83-114 221-159 135-49 478-56 603 0 128 52 103 14 162 159 63 145 35 685 0 734-34 52-38 83-180 138-145 52-713 24-706-38 11-62-34 52-100-79-63-132-76-603 0-755zM17814 33357c79-152 83-114 221-159 135-48 478-55 602 0 128 52 104 14 163 159 62 146 35 686 0 734-35 52-38 83-180 139-145 51-713 24-706-39 10-62-35 52-100-79-63-132-77-602 0-755zM18970 33361c79-153 83-115 221-160 135-48 478-55 603 0 128 52 103 14 162 160 63 145 35 685 0 734-34 51-38 83-180 138-145 52-713 24-706-38 10-62-35 52-100-80-63-131-76-602 0-754zM18295 38134c114-152 118-114 319-159 200-49 695-56 879 0 187 52 149 14 235 159 90 145 49 685 0 734-48 52-52 83-263 138-211 52-1038 25-1021-38 14-62-55 52-149-79-93-132-111-603 0-755zM4467 34614c114-153 117-114 318-159 201-49 696-56 879 0 187 51 149 13 236 159 90 145 48 685 0 734-49 52-52 83-263 138-212 52-1039 24-1022-38 14-62-55 52-148-80-94-131-111-602 0-754z" fill="#b3b3b3" class="com.sun.star.drawing.ClosedBezierShape"/></g><path d="M3528 29673l20288-41-21822-2482 1534 2523z" class="com.sun.star.drawing.PolyPolygonShape"/><path d="M1994 27150h23393l-1571 2523-21822-2523z" fill="#4c4c4c" class="com.sun.star.drawing.PolyPolygonShape"/></g></g></svg>